<svg width="current" height="current" viewBox="0 0 20 20" fill="none" xmlns="http://www.w3.org/2000/svg">
<path d="M16.651 14.2581C16.7273 14.3354 16.8171 14.3958 16.9152 14.4359C17.0134 14.476 17.1179 14.495 17.2229 14.4918C17.3279 14.4886 17.4312 14.4633 17.5271 14.4173C17.6229 14.3714 17.7094 14.3056 17.7815 14.2239C17.8537 14.1421 17.9101 14.046 17.9475 13.9409C17.9849 13.8358 18.0026 13.7238 17.9997 13.6114C17.9967 13.4989 17.9731 13.3882 17.9302 13.2855C17.8873 13.1829 17.8259 13.0903 17.7495 13.013L10.5538 5.73408C10.4053 5.58376 10.2088 5.5 10.0045 5.5C9.8002 5.5 9.60366 5.58376 9.45522 5.73408L2.25864 13.013C2.18064 13.0898 2.11765 13.1823 2.07333 13.2854C2.02902 13.3884 2.00426 13.4999 2.0005 13.6132C1.99674 13.7266 2.01405 13.8397 2.05143 13.9458C2.0888 14.052 2.1455 14.1491 2.21822 14.2316C2.29094 14.3141 2.37824 14.3803 2.47504 14.4263C2.57184 14.4723 2.67623 14.4973 2.78212 14.4998C2.88802 14.5023 2.99331 14.4822 3.0919 14.4407C3.19048 14.3992 3.28039 14.3372 3.35639 14.2581L10.0045 7.53411L16.651 14.2581Z" fill="#2C2C2C"/>
</svg>
