<svg width="current" height="current" viewBox="0 0 62 62" fill="none" xmlns="http://www.w3.org/2000/svg">
<path d="M26.9583 13.2621C26.8306 13.1284 26.6538 13.0527 26.4689 13.0527C25.9185 13.0527 25.5983 13.6748 25.9182 14.1227L37.2403 29.9736C37.737 30.669 37.737 31.6031 37.2403 32.2985L25.9182 48.1494C25.5983 48.5973 25.9185 49.2194 26.4689 49.2194C26.6538 49.2194 26.8306 49.1437 26.9583 49.01L42.707 32.5173C43.445 31.7444 43.445 30.5278 42.707 29.7549L26.9583 13.2621Z" fill="#808080"/>
<path d="M18.7661 13.6861C18.7216 13.629 18.6532 13.5957 18.5809 13.5957C18.4012 13.5957 18.288 13.7894 18.3763 13.9459L27.5101 30.1532C27.8537 30.7628 27.8537 31.5076 27.5101 32.1171L18.3763 48.3244C18.288 48.481 18.4012 48.6747 18.5809 48.6747C18.6532 48.6747 18.7216 48.6413 18.7661 48.5843L31.4265 32.3658C31.9911 31.6425 31.9911 30.6278 31.4265 29.9045L18.7661 13.6861Z" fill="#808080"/>
</svg>
