<svg width="current" height="current" viewBox="0 0 28 28" fill="none" xmlns="http://www.w3.org/2000/svg">
<path d="M4.30171 8.49584C4.19033 8.39058 4.0593 8.3083 3.91612 8.25368C3.77294 8.19906 3.6204 8.17318 3.46721 8.17751C3.31402 8.18184 3.16319 8.21631 3.02333 8.27893C2.88346 8.34156 2.7573 8.43112 2.65204 8.5425C2.54679 8.65388 2.4645 8.78491 2.40988 8.92809C2.35527 9.07128 2.32938 9.22381 2.33372 9.377C2.33805 9.53019 2.37251 9.68102 2.43514 9.82089C2.49777 9.96075 2.58733 10.0869 2.69871 10.1922L13.1987 20.1088C13.4153 20.3136 13.7021 20.4277 14.0002 20.4277C14.2983 20.4277 14.5851 20.3136 14.8017 20.1088L25.3029 10.1922C25.4167 10.0876 25.5086 9.96147 25.5733 9.82109C25.6379 9.68071 25.6741 9.52888 25.6795 9.37442C25.685 9.21996 25.6598 9.06595 25.6052 8.92133C25.5507 8.77672 25.468 8.64438 25.3619 8.532C25.2557 8.41963 25.1284 8.32946 24.9871 8.26673C24.8458 8.20401 24.6935 8.16997 24.539 8.16661C24.3845 8.16324 24.2308 8.19061 24.087 8.24713C23.9431 8.30365 23.8119 8.38819 23.701 8.49583L14.0002 17.6565L4.30171 8.49584Z" fill="#2C2C2C"/>
</svg>
