<svg width="current" height="current" viewBox="0 0 16 16" fill="none" xmlns="http://www.w3.org/2000/svg">
<path d="M13.136 8.00039L7.47465 13.8184C7.42804 13.8653 7.39119 13.9209 7.36624 13.9822C7.34128 14.0434 7.32871 14.1089 7.32926 14.1751C7.32981 14.2412 7.34347 14.3065 7.36944 14.3673C7.39541 14.4281 7.43317 14.4831 7.48056 14.5293C7.52794 14.5754 7.584 14.6116 7.64548 14.6359C7.70697 14.6602 7.77266 14.6721 7.83876 14.6708C7.90486 14.6695 7.97006 14.6552 8.03057 14.6286C8.09109 14.602 8.14572 14.5636 8.19132 14.5157L14.1913 8.34905C14.2821 8.25571 14.3329 8.13062 14.3329 8.00039C14.3329 7.87016 14.2821 7.74506 14.1913 7.65172L8.19132 1.48505C8.14573 1.43718 8.09109 1.39882 8.03058 1.3722C7.97006 1.34558 7.90487 1.33122 7.83876 1.32997C7.77266 1.32871 7.70697 1.34057 7.64548 1.36487C7.584 1.38917 7.52794 1.42542 7.48056 1.47152C7.43318 1.51763 7.39541 1.57267 7.36944 1.63347C7.34347 1.69427 7.32981 1.75961 7.32926 1.82572C7.32871 1.89183 7.34128 1.95739 7.36624 2.01862C7.39119 2.07984 7.42804 2.1355 7.47465 2.18239L13.136 8.00039Z" fill="white"/>
</svg>
