<svg width="current" height="current" viewBox="0 0 28 28" fill="none" xmlns="http://www.w3.org/2000/svg">
<path d="M14 5.42857C9.26643 5.42857 5.42857 9.26643 5.42857 14C5.42857 18.7336 9.26643 22.5714 14 22.5714C18.7336 22.5714 22.5714 18.7336 22.5714 14C22.5714 9.26643 18.7336 5.42857 14 5.42857ZM4 14C4 8.47714 8.47714 4 14 4C19.5229 4 24 8.47714 24 14C24 19.5229 19.5229 24 14 24C8.47714 24 4 19.5229 4 14ZM12.7957 14C12.7957 13.8106 12.871 13.6289 13.0049 13.4949C13.1389 13.361 13.3206 13.2857 13.51 13.2857H14.1771C15.31 13.2857 16.1429 12.44 16.1429 11.5C16.1429 10.56 15.31 9.71429 14.1771 9.71429C13.5243 9.71429 12.9929 9.95714 12.6129 10.2157C12.418 10.3485 12.2384 10.5022 12.0771 10.6743L12.0557 10.6979L12.0543 10.7007C11.9953 10.7736 11.9225 10.8342 11.8401 10.879C11.7577 10.9238 11.6672 10.952 11.5739 10.9618C11.3855 10.9817 11.1969 10.9259 11.0496 10.8068C10.9024 10.6876 10.8084 10.5148 10.7885 10.3264C10.7686 10.138 10.8244 9.94943 10.9436 9.80214L10.945 9.80071L10.9471 9.79786L10.9521 9.79143L10.9664 9.77357L11.0157 9.71857C11.0557 9.67286 11.1121 9.61429 11.185 9.54286C11.3782 9.35554 11.5873 9.18538 11.81 9.03429C12.3507 8.66714 13.1579 8.28571 14.1771 8.28571C16.0043 8.28571 17.5714 9.67857 17.5714 11.5C17.5714 12.5271 17.0729 13.4186 16.31 14C17.0729 14.5814 17.5714 15.4729 17.5714 16.5C17.5714 18.3214 16.0043 19.7143 14.1771 19.7143C13.1579 19.7143 12.3507 19.3329 11.81 18.9657C11.5203 18.7683 11.2538 18.5388 11.0157 18.2814L10.9671 18.2264L10.9521 18.2086L10.9471 18.2014L10.945 18.1993L10.9443 18.1986L10.9436 18.1979C10.8244 18.0506 10.7686 17.862 10.7885 17.6736C10.8084 17.4852 10.9024 17.3124 11.0496 17.1932C11.1969 17.0741 11.3855 17.0183 11.5739 17.0382C11.7623 17.0581 11.9351 17.152 12.0543 17.2993L12.0564 17.3021L12.0779 17.3257C12.0993 17.35 12.1338 17.386 12.1814 17.4336C12.2779 17.5271 12.4236 17.655 12.6129 17.7836C12.9929 18.0421 13.5243 18.2857 14.1771 18.2857C15.31 18.2857 16.1429 17.44 16.1429 16.5C16.1429 15.56 15.31 14.7143 14.1771 14.7143H13.51C13.3206 14.7143 13.1389 14.639 13.0049 14.5051C12.871 14.3711 12.7957 14.1894 12.7957 14Z" fill="#2C2C2C"/>
</svg>
