<svg width="current" height="current" viewBox="0 0 28 28" fill="none" xmlns="http://www.w3.org/2000/svg">
<path d="M15.5 9.25C15.4994 9.06426 15.43 8.88534 15.3051 8.74787C15.1802 8.61041 15.0087 8.52418 14.8239 8.50588C14.6391 8.48758 14.454 8.53852 14.3046 8.64883C14.1551 8.75914 14.052 8.92098 14.015 9.103C13.919 9.581 13.611 10.223 13.136 10.809C12.662 11.395 12.085 11.848 11.513 12.039C11.3314 12.1073 11.1834 12.2433 11.0999 12.4184C11.0165 12.5935 11.0041 12.7941 11.0655 12.9782C11.1268 13.1622 11.2571 13.3153 11.4289 13.4053C11.6007 13.4954 11.8008 13.5153 11.987 13.461C12.765 13.202 13.452 12.688 14 12.101V18.25C14 18.4489 14.079 18.6397 14.2197 18.7803C14.3603 18.921 14.5511 19 14.75 19C14.9489 19 15.1397 18.921 15.2803 18.7803C15.421 18.6397 15.5 18.4489 15.5 18.25V9.25ZM14 4C8.477 4 4 8.477 4 14C4 19.523 8.477 24 14 24C19.523 24 24 19.523 24 14C24 8.477 19.523 4 14 4ZM5.5 14C5.5 11.7457 6.39553 9.58365 7.98959 7.98959C9.58365 6.39553 11.7457 5.5 14 5.5C16.2543 5.5 18.4163 6.39553 20.0104 7.98959C21.6045 9.58365 22.5 11.7457 22.5 14C22.5 16.2543 21.6045 18.4163 20.0104 20.0104C18.4163 21.6045 16.2543 22.5 14 22.5C11.7457 22.5 9.58365 21.6045 7.98959 20.0104C6.39553 18.4163 5.5 16.2543 5.5 14Z" fill="#2C2C2C"/>
</svg>
