<svg width="current" height="current" viewBox="0 0 28 28" fill="none" xmlns="http://www.w3.org/2000/svg">
<path d="M5.5 14C5.5 11.7457 6.39553 9.58365 7.98959 7.98959C9.58365 6.39553 11.7457 5.5 14 5.5C16.2543 5.5 18.4163 6.39553 20.0104 7.98959C21.6045 9.58365 22.5 11.7457 22.5 14C22.5 16.2543 21.6045 18.4163 20.0104 20.0104C18.4163 21.6045 16.2543 22.5 14 22.5C11.7457 22.5 9.58365 21.6045 7.98959 20.0104C6.39553 18.4163 5.5 16.2543 5.5 14ZM14 4C8.477 4 4 8.477 4 14C4 19.523 8.477 24 14 24C19.523 24 24 19.523 24 14C24 8.477 19.523 4 14 4ZM12.351 10.95L12.35 10.953C12.2304 11.112 12.0525 11.217 11.8555 11.2448C11.6585 11.2727 11.4585 11.2211 11.2995 11.1015C11.1405 10.9819 11.0355 10.804 11.0077 10.607C10.9798 10.41 11.0314 10.21 11.151 10.051L11.152 10.05C11.174 10.02 11.1967 9.99167 11.22 9.965C11.4437 9.70507 11.6963 9.47155 11.973 9.269C12.485 8.896 13.262 8.5 14.249 8.5C15.111 8.5 15.9376 8.84241 16.5471 9.4519C17.1566 10.0614 17.499 10.888 17.499 11.75C17.499 12.778 17.069 13.497 16.465 14.03C16.004 14.438 15.412 14.757 14.897 15.034L14.611 15.188C13.995 15.528 13.481 15.853 13.111 16.304C12.8295 16.6493 12.6415 17.0611 12.565 17.5H16.75C16.9489 17.5 17.1397 17.579 17.2803 17.7197C17.421 17.8603 17.5 18.0511 17.5 18.25C17.5 18.4489 17.421 18.6397 17.2803 18.7803C17.1397 18.921 16.9489 19 16.75 19H11.75C11.5511 19 11.3603 18.921 11.2197 18.7803C11.079 18.6397 11 18.4489 11 18.25C11 16.996 11.364 16.067 11.952 15.352C12.518 14.662 13.255 14.222 13.889 13.874L14.232 13.687C14.746 13.409 15.152 13.189 15.472 12.907C15.805 12.612 16 12.284 15.999 11.75C15.999 11.286 15.8148 10.8411 15.4868 10.5129C15.1588 10.1848 14.714 10.0003 14.25 10C13.676 10 13.204 10.23 12.857 10.481C12.6712 10.6177 12.5017 10.7754 12.352 10.951" fill="#2C2C2C"/>
</svg>
