<svg width="current" height="current" viewBox="0 0 28 28" fill="none" xmlns="http://www.w3.org/2000/svg">
<path d="M5.42857 14C5.42857 9.26643 9.26643 5.42857 14 5.42857C18.7336 5.42857 22.5714 9.26643 22.5714 14C22.5714 18.7336 18.7336 22.5714 14 22.5714C9.26643 22.5714 5.42857 18.7336 5.42857 14ZM14 4C8.47714 4 4 8.47714 4 14C4 19.5229 8.47714 24 14 24C19.5229 24 24 19.5229 24 14C24 8.47714 19.5229 4 14 4ZM16.1414 9.58643C16.1414 8.59714 14.8579 8.20857 14.3093 9.03214L10.0564 15.4136C9.96324 15.5534 9.90974 15.7159 9.90161 15.8837C9.89349 16.0515 9.93105 16.2184 10.0103 16.3665C10.0895 16.5147 10.2075 16.6386 10.3516 16.725C10.4957 16.8114 10.6606 16.857 10.8286 16.8571H14.7121V18.2857C14.7121 18.4752 14.7874 18.6568 14.9214 18.7908C15.0553 18.9247 15.237 19 15.4264 19C15.6159 19 15.7976 18.9247 15.9315 18.7908C16.0655 18.6568 16.1407 18.4752 16.1407 18.2857V16.8571H16.855C17.0444 16.8571 17.2261 16.7819 17.3601 16.6479C17.494 16.514 17.5693 16.3323 17.5693 16.1429C17.5693 15.9534 17.494 15.7717 17.3601 15.6378C17.2261 15.5038 17.0444 15.4286 16.855 15.4286H16.1407L16.1414 9.58643ZM14.7129 11.0029V15.4286H11.7629L14.7129 11.0029Z" fill="#2C2C2C"/>
</svg>
