<svg width="current" height="current" viewBox="0 0 35 34" fill="none" xmlns="http://www.w3.org/2000/svg">
<mask id="mask0_1035_6136" style="mask-type:luminance" maskUnits="userSpaceOnUse" x="0" y="0" width="35" height="34">
<path d="M34.333 0H0.333008V34H34.333V0Z" fill="white"/>
</mask>
<g mask="url(#mask0_1035_6136)">
<path d="M29.9356 7.36342L26.9243 4.38079C26.6654 4.13636 26.3215 4 25.9639 4C25.6062 4 25.2623 4.13636 25.0035 4.38079L22.3258 7.04098H7.96077C7.52906 7.04098 7.11503 7.21084 6.80977 7.51319C6.5045 7.81554 6.33301 8.22562 6.33301 8.65321V26.3878C6.33301 26.8154 6.5045 27.2254 6.80977 27.5278C7.11503 27.8301 7.52906 28 7.96077 28H25.8662C26.2979 28 26.7119 27.8301 27.0172 27.5278C27.3225 27.2254 27.494 26.8154 27.494 26.3878V11.6842L29.9356 9.26586C30.1901 9.01345 30.333 8.67134 30.333 8.31464C30.333 7.95795 30.1901 7.61583 29.9356 7.36342ZM18.4029 18.4314L14.9927 19.1811L15.8066 15.8357L23.5792 8.12117L26.208 10.7249L18.4029 18.4314ZM27.087 9.80596L24.4582 7.2022L25.9639 5.71089L28.5927 8.31464L27.087 9.80596Z" fill="#1A8FD4"/>
</g>
</svg>
