<svg width="32" height="32" viewBox="0 0 32 32" fill="none" xmlns="http://www.w3.org/2000/svg">
<g clip-path="url(#clip0_984_1924)">
<mask id="mask0_984_1924" style="mask-type:luminance" maskUnits="userSpaceOnUse" x="0" y="0" width="32" height="32">
<path d="M32 0H0V32H32V0Z" fill="white"/>
</mask>
<g mask="url(#mask0_984_1924)">
<path d="M22.4 28C21.9775 28.0003 21.572 27.8439 21.2721 27.565L16.0002 22.615L10.7683 27.505C10.547 27.7268 10.2591 27.8804 9.94264 27.9454C9.62621 28.0105 9.29616 27.9839 8.99617 27.8693C8.69617 27.7547 8.44035 27.5574 8.26254 27.3035C8.08473 27.0496 7.99332 26.7511 8.00038 26.4475V5.5C8.00038 5.10218 8.16895 4.72064 8.469 4.43934C8.76905 4.15804 9.17601 4 9.60034 4H22.4C22.8244 4 23.2313 4.15804 23.5314 4.43934C23.8314 4.72064 24 5.10218 24 5.5V26.5C24 26.8978 23.8314 27.2794 23.5314 27.5607C23.2313 27.842 22.8244 28 22.4 28ZM22 25.8126V5.84615H10V25.6923L16.0002 20.2232L22 25.8126Z" fill="#808080"/>
</g>
</g>
<defs>
<clipPath id="clip0_984_1924">
<rect width="32" height="32" fill="white"/>
</clipPath>
</defs>
</svg>
