<svg width="35" height="34" viewBox="0 0 35 34" fill="none" xmlns="http://www.w3.org/2000/svg">
<mask id="mask0_1038_6169" style="mask-type:luminance" maskUnits="userSpaceOnUse" x="0" y="0" width="35" height="34">
<path d="M34.333 0H0.333008V34H34.333V0Z" fill="white"/>
</mask>
<g mask="url(#mask0_1038_6169)">
<path d="M25.7176 26.3846H7.94839V8.61538H18.6261L20.2415 7H7.94839C7.51997 7 7.10909 7.17019 6.80614 7.47314C6.5032 7.77608 6.33301 8.18696 6.33301 8.61538V26.3846C6.33301 26.813 6.5032 27.2239 6.80614 27.5269C7.10909 27.8298 7.51997 28 7.94839 28H25.7176C26.146 28 26.5569 27.8298 26.8599 27.5269C27.1628 27.2239 27.333 26.813 27.333 26.3846V14.2692L25.7176 15.8846V26.3846Z" fill="#B5B5B5"/>
<path d="M29.9496 7.10913L27.2182 4.38276C27.097 4.26143 26.953 4.16517 26.7945 4.09949C26.6359 4.03381 26.466 4 26.2943 4C26.1226 4 25.9527 4.03381 25.7941 4.09949C25.6356 4.16517 25.4916 4.26143 25.3703 4.38276L14.2587 15.539L13.359 19.4304C13.3207 19.619 13.3247 19.8138 13.3708 20.0007C13.4169 20.1876 13.504 20.3619 13.6256 20.5112C13.7473 20.6605 13.9006 20.7811 14.0745 20.8642C14.2485 20.9473 14.4387 20.9908 14.6315 20.9918C14.7312 21.0027 14.8317 21.0027 14.9314 20.9918L18.8622 20.1261L29.9496 8.95368C30.0711 8.83268 30.1675 8.68894 30.2333 8.53068C30.2991 8.37242 30.333 8.20275 30.333 8.0314C30.333 7.86006 30.2991 7.69039 30.2333 7.53213C30.1675 7.37387 30.0711 7.23013 29.9496 7.10913ZM18.0193 18.6295L15.0529 19.2848L15.7419 16.3481L24.106 7.94241L26.3916 10.2238L18.0193 18.6295ZM27.3074 9.30964L25.0218 7.02823L26.2781 5.74999L28.5798 8.04758L27.3074 9.30964Z" fill="#B5B5B5"/>
</g>
</svg>
