<svg width="current" height="current" viewBox="0 0 24 24" fill="none" xmlns="http://www.w3.org/2000/svg">
<path d="M21.7891 1.47832L22.3791 2.06832C23.1921 2.88232 23.0691 4.32532 22.1021 5.29132L9.93505 17.4583L5.99305 18.9003C5.49805 19.0823 5.01605 18.8463 4.91805 18.3753C4.88493 18.2045 4.90053 18.0277 4.96305 17.8653L6.43305 13.8893L18.5661 1.75532C19.5331 0.789316 20.9761 0.664316 21.7891 1.47832ZM9.40405 2.68832C9.53537 2.68832 9.66541 2.71418 9.78674 2.76444C9.90806 2.81469 10.0183 2.88835 10.1112 2.98121C10.204 3.07407 10.2777 3.18431 10.3279 3.30563C10.3782 3.42696 10.4041 3.55699 10.4041 3.68832C10.4041 3.81964 10.3782 3.94967 10.3279 4.071C10.2777 4.19233 10.204 4.30256 10.1112 4.39542C10.0183 4.48828 9.90806 4.56194 9.78674 4.6122C9.66541 4.66245 9.53537 4.68832 9.40405 4.68832H5.40405C4.87362 4.68832 4.36491 4.89903 3.98984 5.2741C3.61477 5.64918 3.40405 6.15788 3.40405 6.68832V18.6883C3.40405 19.2188 3.61477 19.7275 3.98984 20.1025C4.36491 20.4776 4.87362 20.6883 5.40405 20.6883H17.4041C17.9345 20.6883 18.4432 20.4776 18.8183 20.1025C19.1933 19.7275 19.4041 19.2188 19.4041 18.6883V14.6883C19.4041 14.4231 19.5094 14.1687 19.6969 13.9812C19.8845 13.7937 20.1388 13.6883 20.4041 13.6883C20.6693 13.6883 20.9236 13.7937 21.1112 13.9812C21.2987 14.1687 21.4041 14.4231 21.4041 14.6883V18.6883C21.4041 19.7492 20.9826 20.7666 20.2325 21.5167C19.4823 22.2669 18.4649 22.6883 17.4041 22.6883H5.40405C4.34319 22.6883 3.32577 22.2669 2.57563 21.5167C1.82548 20.7666 1.40405 19.7492 1.40405 18.6883V6.68832C1.40405 5.62745 1.82548 4.61003 2.57563 3.85989C3.32577 3.10974 4.34319 2.68832 5.40405 2.68832H9.40405Z" fill="currentColor"/>
</svg>
