<svg width="current" height="current" viewBox="0 0 28 28" fill="none" xmlns="http://www.w3.org/2000/svg">
<path fill-rule="evenodd" clip-rule="evenodd" d="M8.95166 13.6638C8.95166 12.3746 9.48351 11.1382 10.4302 10.2265C11.3769 9.31489 12.6609 8.80273 13.9997 8.80273C15.3386 8.80273 16.6226 9.31489 17.5693 10.2265C18.516 11.1382 19.0478 12.3746 19.0478 13.6638C19.0478 14.9531 18.516 16.1895 17.5693 17.1012C16.6226 18.0128 15.3386 18.525 13.9997 18.525C12.6609 18.525 11.3769 18.0128 10.4302 17.1012C9.48351 16.1895 8.95166 14.9531 8.95166 13.6638ZM13.9997 10.7472C13.1964 10.7472 12.426 11.0545 11.858 11.6015C11.29 12.1484 10.9709 12.8903 10.9709 13.6638C10.9709 14.4374 11.29 15.1793 11.858 15.7262C12.426 16.2732 13.1964 16.5805 13.9997 16.5805C14.803 16.5805 15.5734 16.2732 16.1415 15.7262C16.7095 15.1793 17.0286 14.4374 17.0286 13.6638C17.0286 12.8903 16.7095 12.1484 16.1415 11.6015C15.5734 11.0545 14.803 10.7472 13.9997 10.7472Z" fill="#2C2C2C"/>
<path d="M13.9997 10.7472C13.1964 10.7472 12.426 11.0545 11.858 11.6015C11.29 12.1484 10.9709 12.8903 10.9709 13.6638C10.9709 14.4374 11.29 15.1793 11.858 15.7262C12.426 16.2732 13.1964 16.5805 13.9997 16.5805C14.803 16.5805 15.5734 16.2732 16.1415 15.7262C16.7095 15.1793 17.0286 14.4374 17.0286 13.6638C17.0286 12.8903 16.7095 12.1484 16.1415 11.6015C15.5734 11.0545 14.803 10.7472 13.9997 10.7472Z" fill="#2C2C2C"/>
<path fill-rule="evenodd" clip-rule="evenodd" d="M3.66558 11.9089C3.10154 12.6918 2.89423 13.305 2.89423 13.6641C2.89423 14.0231 3.10154 14.6363 3.66558 15.4192C4.21212 16.175 5.0225 16.9955 6.04827 17.7539C8.10385 19.2731 10.9213 20.4696 14 20.4696C17.0787 20.4696 19.8962 19.2731 21.9517 17.7539C22.9775 16.9955 23.7879 16.175 24.3344 15.4192C24.8985 14.6363 25.1058 14.0231 25.1058 13.6641C25.1058 13.305 24.8985 12.6918 24.3344 11.9089C23.7879 11.1531 22.9775 10.3326 21.9517 9.57425C19.8962 8.05499 17.0787 6.85851 14 6.85851C10.9213 6.85851 8.10385 8.05499 6.04827 9.57425C5.0225 10.3326 4.21212 11.1531 3.66558 11.9089ZM4.81788 8.03166C7.14808 6.31017 10.3869 4.91406 14 4.91406C17.6131 4.91406 20.8519 6.31017 23.1808 8.03166C24.3479 8.89369 25.3117 9.85554 25.9929 10.8005C26.6552 11.7196 27.125 12.7268 27.125 13.6641C27.125 14.6013 26.6538 15.6085 25.9929 16.5276C25.3117 17.4726 24.3479 18.4331 23.1821 19.2965C20.8533 21.018 17.6131 22.4141 14 22.4141C10.3869 22.4141 7.14808 21.018 4.81923 19.2965C3.65212 18.4344 2.68827 17.4726 2.00712 16.5276C1.34615 15.6085 0.875 14.6013 0.875 13.6641C0.875 12.7268 1.34615 11.7196 2.00712 10.8005C2.68827 9.85554 3.65212 8.89499 4.81788 8.03166Z" fill="#2C2C2C"/>
</svg>
