<svg width="current" height="current" viewBox="0 0 28 28" fill="none" xmlns="http://www.w3.org/2000/svg">
<path d="M26.4579 24.4093C26.3441 24.4841 26.2185 24.5323 26.0884 24.5512C25.9584 24.57 25.8264 24.5591 25.7 24.5191C25.5736 24.4791 25.4552 24.4107 25.3518 24.3179C25.2483 24.2251 25.1618 24.1097 25.0971 23.9784L22.7292 19.2098C21.3527 20.2827 19.8341 21.0908 18.2329 21.6027L18.9644 26.6614C18.986 26.8103 18.9819 26.9627 18.9523 27.1098C18.9228 27.2568 18.8684 27.3958 18.7923 27.5186C18.7161 27.6415 18.6197 27.7459 18.5085 27.8257C18.3973 27.9056 18.2736 27.9595 18.1444 27.9842C18.0912 27.9942 18.0375 27.9995 17.9836 28C17.7478 27.9996 17.5197 27.9028 17.3399 27.7269C17.1601 27.551 17.0402 27.3073 17.0016 27.0391L16.2825 22.0724C14.7661 22.3157 13.2278 22.3157 11.7114 22.0724L10.9923 27.0391C10.9536 27.3078 10.8334 27.5518 10.6531 27.7278C10.4728 27.9038 10.2441 28.0003 10.0078 28C9.95268 27.9997 9.89767 27.9944 9.84329 27.9842C9.71405 27.9595 9.59032 27.9056 9.47915 27.8257C9.36798 27.7459 9.27157 27.6415 9.19541 27.5186C9.11926 27.3958 9.06485 27.2568 9.03532 27.1098C9.00578 26.9627 9.00169 26.8103 9.02327 26.6614L9.75854 21.6027C8.15791 21.0892 6.64022 20.2796 5.26467 19.2055L2.90432 23.9784C2.83886 24.1098 2.75157 24.2251 2.64744 24.3177C2.54331 24.4103 2.42437 24.4784 2.29742 24.518C2.17048 24.5576 2.038 24.568 1.90756 24.5486C1.77713 24.5292 1.65128 24.4804 1.53721 24.4049C1.42315 24.3295 1.32309 24.2289 1.24275 24.1089C1.16242 23.9889 1.10338 23.8518 1.06901 23.7055C1.03464 23.5592 1.02561 23.4065 1.04244 23.2562C1.05927 23.1058 1.10162 22.9608 1.16709 22.8293L3.65953 17.8023C2.78407 16.9305 1.97904 15.9691 1.25432 14.9297C1.16394 14.8134 1.09508 14.6771 1.05193 14.5291C1.00878 14.3811 0.992252 14.2245 1.00335 14.0689C1.01446 13.9133 1.05295 13.7619 1.1165 13.6241C1.18005 13.4862 1.26731 13.3647 1.37295 13.267C1.4786 13.1692 1.60042 13.0973 1.73097 13.0557C1.86153 13.014 1.99808 13.0035 2.13229 13.0247C2.2665 13.0459 2.39556 13.0983 2.51158 13.1789C2.6276 13.2595 2.72816 13.3665 2.80712 13.4934C4.87584 16.4435 8.49487 19.9567 13.9957 19.9567C19.4965 19.9567 23.1156 16.4392 25.1843 13.4934C25.2623 13.3639 25.3627 13.2543 25.479 13.1715C25.5954 13.0886 25.7253 13.0343 25.8607 13.0118C25.9961 12.9893 26.1341 12.9991 26.266 13.0407C26.3979 13.0823 26.521 13.1547 26.6277 13.2535C26.7343 13.3523 26.8221 13.4752 26.8857 13.6148C26.9493 13.7544 26.9873 13.9076 26.9973 14.0648C27.0073 14.222 26.9892 14.3799 26.944 14.5287C26.8988 14.6775 26.8275 14.814 26.7346 14.9297C26.0099 15.9691 25.2048 16.9305 24.3294 17.8023L26.8218 22.8293C26.8887 22.9604 26.9324 23.1054 26.9503 23.256C26.9682 23.4067 26.96 23.5599 26.9262 23.7069C26.8923 23.8538 26.8335 23.9916 26.7531 24.1122C26.6728 24.2327 26.5724 24.3337 26.4579 24.4093Z" fill="#DBDBDB"/>
</svg>
