<svg width="current" height="current" viewBox="0 0 28 28" fill="none" xmlns="http://www.w3.org/2000/svg">
<path d="M20.125 7.875C20.125 9.49945 19.4797 11.0574 18.331 12.206C17.1824 13.3547 15.6245 14 14 14C12.3755 14 10.8176 13.3547 9.66897 12.206C8.52031 11.0574 7.875 9.49945 7.875 7.875C7.875 6.25055 8.52031 4.69263 9.66897 3.54397C10.8176 2.39531 12.3755 1.75 14 1.75C15.6245 1.75 17.1824 2.39531 18.331 3.54397C19.4797 4.69263 20.125 6.25055 20.125 7.875ZM18.375 7.875C18.375 6.71468 17.9141 5.60188 17.0936 4.78141C16.2731 3.96094 15.1603 3.5 14 3.5C12.8397 3.5 11.7269 3.96094 10.9064 4.78141C10.0859 5.60188 9.625 6.71468 9.625 7.875C9.625 9.03532 10.0859 10.1481 10.9064 10.9686C11.7269 11.7891 12.8397 12.25 14 12.25C15.1603 12.25 16.2731 11.7891 17.0936 10.9686C17.9141 10.1481 18.375 9.03532 18.375 7.875ZM6.5625 15.75C5.75027 15.75 4.97132 16.0727 4.39699 16.647C3.82266 17.2213 3.5 18.0003 3.5 18.8125V19.25C3.5 21.3439 4.83263 23.1149 6.72438 24.3189C8.62663 25.5299 11.2017 26.25 14 26.25C16.7983 26.25 19.3725 25.5299 21.2756 24.3189C23.1674 23.1149 24.5 21.3439 24.5 19.25V18.8125C24.5 18.0003 24.1773 17.2213 23.603 16.647C23.0287 16.0727 22.2497 15.75 21.4375 15.75H6.5625ZM5.25 18.8125C5.25 18.4644 5.38828 18.1306 5.63442 17.8844C5.88056 17.6383 6.2144 17.5 6.5625 17.5H21.4375C21.7856 17.5 22.1194 17.6383 22.3656 17.8844C22.6117 18.1306 22.75 18.4644 22.75 18.8125V19.25C22.75 20.5389 21.9275 21.8304 20.3359 22.8428C18.7547 23.849 16.5174 24.5 14 24.5C11.4826 24.5 9.24525 23.849 7.66412 22.8428C6.07162 21.8313 5.25 20.538 5.25 19.25V18.8125Z" fill="white"/>
</svg>
