<svg width="24" height="24" viewBox="0 0 24 24" fill="none" xmlns="http://www.w3.org/2000/svg">
<path d="M24 4.67189C24 4.32612 23.8626 3.99451 23.6181 3.75002C23.3737 3.50552 23.042 3.36816 22.6963 3.36816H4.44408C4.09831 3.36816 3.7667 3.50552 3.52221 3.75002C3.27771 3.99451 3.14035 4.32612 3.14035 4.67189C3.14035 5.01766 3.27771 5.34927 3.52221 5.59377C3.7667 5.83826 4.09831 5.97562 4.44408 5.97562L22.6963 5.97562C23.042 5.97562 23.3737 5.83826 23.6181 5.59377C23.8626 5.34927 24 5.01766 24 4.67189ZM24 18.5783C24 18.2326 23.8626 17.9009 23.6181 17.6565C23.3737 17.412 23.042 17.2746 22.6963 17.2746H10.4441C10.0983 17.2746 9.7667 17.412 9.52221 17.6565C9.27771 17.9009 9.14035 18.2326 9.14035 18.5783C9.14035 18.9241 9.27771 19.2557 9.52221 19.5002C9.7667 19.7447 10.0983 19.8821 10.4441 19.8821H22.6963C23.042 19.8821 23.3737 19.7447 23.6181 19.5002C23.8626 19.2557 24 18.9241 24 18.5783ZM22.6963 10.3214C23.042 10.3214 23.3737 10.4587 23.6181 10.7032C23.8626 10.9477 24 11.2793 24 11.6251C24 11.9709 23.8626 12.3025 23.6181 12.547C23.3737 12.7915 23.042 12.9288 22.6963 12.9288H4.44408C4.09831 12.9288 3.7667 12.7915 3.52221 12.547C3.27771 12.3025 3.14035 11.9709 3.14035 11.6251C3.14035 11.2793 3.27771 10.9477 3.52221 10.7032C3.7667 10.4587 4.09831 10.3214 4.44408 10.3214H22.6963Z" fill="#16396F"/>
</svg>
