<svg width="current" height="current" viewBox="0 0 32 33" fill="none" xmlns="http://www.w3.org/2000/svg">
<path d="M18.5 20.667H13.5C12.6716 20.667 12 21.3385 12 22.167V27.5003C12 28.3287 11.3284 29.0003 10.5 29.0003H5.5C4.67157 29.0003 4 28.3287 4 27.5003V15.6602C4 15.2397 4.17647 14.8385 4.48641 14.5544L14.9864 4.92942C15.5599 4.40373 16.4401 4.40373 17.0136 4.92942L27.5136 14.5544C27.8235 14.8385 28 15.2397 28 15.6602V27.5003C28 28.3287 27.3284 29.0003 26.5 29.0003H21.5C20.6716 29.0003 20 28.3287 20 27.5003V22.167C20 21.3385 19.3284 20.667 18.5 20.667Z" fill="#1A8FD4" stroke="#1A8FD4"/>
</svg>
