<svg width="16" height="16" viewBox="0 0 16 16" fill="none" xmlns="http://www.w3.org/2000/svg">
<path d="M8.66635 6.00065H7.33301V4.66732H8.66635M8.66635 11.334H7.33301V7.33398H8.66635M7.99968 1.33398C7.1242 1.33398 6.25729 1.50642 5.44846 1.84145C4.63962 2.17649 3.90469 2.66755 3.28563 3.28661C2.03539 4.53685 1.33301 6.23254 1.33301 8.00065C1.33301 9.76876 2.03539 11.4645 3.28563 12.7147C3.90469 13.3338 4.63962 13.8248 5.44846 14.1598C6.25729 14.4949 7.1242 14.6673 7.99968 14.6673C9.76779 14.6673 11.4635 13.9649 12.7138 12.7147C13.964 11.4645 14.6664 9.76876 14.6664 8.00065C14.6664 7.12517 14.4939 6.25827 14.1589 5.44943C13.8239 4.64059 13.3328 3.90566 12.7138 3.28661C12.0947 2.66755 11.3598 2.17649 10.5509 1.84145C9.74206 1.50642 8.87516 1.33398 7.99968 1.33398Z" fill="#DBDBDB"/>
</svg>
