<svg width="28" height="28" viewBox="0 0 28 28" fill="none" xmlns="http://www.w3.org/2000/svg">
<path fill-rule="evenodd" clip-rule="evenodd" d="M14 15.6505L20.5998 22.2503C20.8198 22.4628 21.1145 22.5804 21.4204 22.5778C21.7263 22.5751 22.0189 22.4524 22.2352 22.2361C22.4516 22.0198 22.5742 21.7272 22.5769 21.4213C22.5796 21.1154 22.462 20.8207 22.2495 20.6007L15.6496 14.0008L22.2495 7.40099C22.462 7.18096 22.5796 6.88625 22.5769 6.58036C22.5742 6.27446 22.4516 5.98185 22.2352 5.76554C22.0189 5.54923 21.7263 5.42653 21.4204 5.42387C21.1145 5.42121 20.8198 5.53881 20.5998 5.75133L14 12.3512L7.40012 5.75133C7.1791 5.54406 6.8861 5.43092 6.58314 5.43584C6.28018 5.44076 5.99101 5.56335 5.77683 5.77768C5.56265 5.99202 5.44026 6.28127 5.43556 6.58423C5.43085 6.8872 5.5442 7.18011 5.75162 7.40099L12.3503 14.0008L5.75046 20.6007C5.63903 20.7083 5.55015 20.837 5.48901 20.9794C5.42786 21.1217 5.39568 21.2748 5.39433 21.4297C5.39299 21.5846 5.4225 21.7382 5.48116 21.8816C5.53983 22.025 5.62645 22.1552 5.736 22.2648C5.84554 22.3743 5.9758 22.461 6.11918 22.5196C6.26256 22.5783 6.41618 22.6078 6.57109 22.6065C6.726 22.6051 6.87909 22.5729 7.02143 22.5118C7.16377 22.4506 7.2925 22.3618 7.40012 22.2503L14 15.6505Z" fill="#2C2C2C"/>
</svg>
