<svg width="current" height="current" viewBox="0 0 32 32" fill="none" xmlns="http://www.w3.org/2000/svg">
<g clip-path="url(#clip0_1260_3361)">
<path d="M5 6.33333C5 5.04533 6.078 4 7.40625 4H24.5938C25.922 4 27 5.04533 27 6.33333V25.6667C27 26.2855 26.7465 26.879 26.2952 27.3166C25.844 27.7542 25.2319 28 24.5938 28H7.40625C6.76807 28 6.15603 27.7542 5.70477 27.3166C5.25351 26.879 5 26.2855 5 25.6667V6.33333ZM7.40625 6C7.31508 6 7.22765 6.03512 7.16318 6.09763C7.09872 6.16014 7.0625 6.24493 7.0625 6.33333V25.6667C7.0625 25.8507 7.2165 26 7.40625 26H24.5938C24.6849 26 24.7724 25.9649 24.8368 25.9024C24.9013 25.8399 24.9375 25.7551 24.9375 25.6667V6.33333C24.9375 6.24493 24.9013 6.16014 24.8368 6.09763C24.7724 6.03512 24.6849 6 24.5938 6H7.40625ZM10.8125 10.6667C10.8125 10.4015 10.9211 10.1471 11.1145 9.95956C11.3079 9.77202 11.5702 9.66667 11.8438 9.66667H20.4688C20.7423 9.66667 21.0046 9.77202 21.198 9.95956C21.3914 10.1471 21.5 10.4015 21.5 10.6667C21.5 10.9319 21.3914 11.1862 21.198 11.3738C21.0046 11.5613 20.7423 11.6667 20.4688 11.6667H11.8438C11.5702 11.6667 11.3079 11.5613 11.1145 11.3738C10.9211 11.1862 10.8125 10.9319 10.8125 10.6667ZM11.8438 14.6667H20.3438C20.6173 14.6667 20.8796 14.772 21.073 14.9596C21.2663 15.1471 21.375 15.4015 21.375 15.6667C21.375 15.9319 21.2663 16.1862 21.073 16.3738C20.8796 16.5613 20.6173 16.6667 20.3438 16.6667H11.8438C11.5702 16.6667 11.3079 16.5613 11.1145 16.3738C10.9211 16.1862 10.8125 15.9319 10.8125 15.6667C10.8125 15.4015 10.9211 15.1471 11.1145 14.9596C11.3079 14.772 11.5702 14.6667 11.8438 14.6667Z" fill="#2C2C2C"/>
<path d="M14.3438 19.666H11.8438C11.5702 19.666 11.3079 19.7714 11.1145 19.9589C10.9211 20.1464 10.8125 20.4008 10.8125 20.666C10.8125 20.9312 10.9211 21.1856 11.1145 21.3731C11.3079 21.5607 11.5702 21.666 11.8438 21.666H14.3438C14.6173 21.666 14.8796 21.5607 15.073 21.3731C15.2663 21.1856 15.375 20.9312 15.375 20.666C15.375 20.4008 15.2663 20.1464 15.073 19.9589C14.8796 19.7714 14.6173 19.666 14.3438 19.666Z" fill="#2C2C2C"/>
<path d="M31.098 30.5191L31.0993 30.5183C31.2637 30.4126 31.4015 30.2752 31.5085 30.1188C31.6153 29.9626 31.6905 29.7887 31.7331 29.608C31.7758 29.4275 31.7859 29.2404 31.7635 29.0568C31.7414 28.875 31.6873 28.6965 31.6017 28.5316L30.3306 26.032C30.7396 25.5974 31.1217 25.1328 31.4743 24.6414C31.5897 24.4949 31.6751 24.3293 31.7293 24.1552C31.7867 23.9711 31.8092 23.7779 31.7966 23.5866C31.7841 23.3954 31.7366 23.2061 31.6544 23.0302C31.5722 22.8542 31.4555 22.6925 31.3071 22.5584C31.1584 22.4241 30.9808 22.3204 30.7833 22.2597C30.5854 22.1989 30.3763 22.1841 30.1709 22.2174C29.9658 22.2506 29.7743 22.3302 29.6078 22.4457C29.4514 22.5543 29.321 22.6918 29.2204 22.8466C28.0126 24.5167 25.9987 26.374 22.9974 26.374C19.9934 26.374 17.9788 24.516 16.7718 22.8432C16.6693 22.6888 16.5371 22.5522 16.3788 22.445C16.2125 22.3323 16.022 22.2554 15.8185 22.2241C15.6148 22.1928 15.4079 22.2086 15.2122 22.2695C15.0169 22.3303 14.8411 22.4332 14.6937 22.5661C14.5466 22.6988 14.4307 22.8586 14.3484 23.0326C14.2662 23.2064 14.2181 23.3936 14.2042 23.583C14.1903 23.7723 14.2108 23.9637 14.2655 24.1466C14.3179 24.3219 14.4017 24.489 14.5157 24.6371C14.8692 25.1301 15.2523 25.5961 15.6626 26.032L14.3904 28.5337C14.3902 28.534 14.3901 28.5343 14.39 28.5345C14.3053 28.7005 14.2523 28.8799 14.2313 29.0625C14.2103 29.2453 14.2215 29.4312 14.2647 29.6107C14.308 29.7901 14.3833 29.9629 14.4899 30.1181C14.5965 30.2735 14.7336 30.4099 14.897 30.5153C15.0607 30.6209 15.2464 30.6923 15.4437 30.7209C15.6412 30.7495 15.8414 30.7339 16.0313 30.6761C16.2208 30.6185 16.3924 30.5212 16.5378 30.3951C16.683 30.2692 16.7994 30.1172 16.8844 29.9509L16.8854 29.9489L17.9241 27.9009C18.428 28.2144 18.9556 28.4805 19.5014 28.6957L19.1461 31.0789L19.1461 31.0792C19.1191 31.261 19.1241 31.4469 19.1613 31.6272C19.1984 31.8075 19.2676 31.9821 19.3682 32.1404C19.4689 32.2988 19.6004 32.4396 19.7589 32.5506C19.9177 32.6619 20.0998 32.7405 20.2953 32.7769L20.2975 32.7774C20.3772 32.792 20.4582 32.7996 20.5395 32.8L20.5424 32.8C20.9052 32.8004 21.2407 32.6552 21.4918 32.4162C21.7406 32.1795 21.8922 31.8666 21.9404 31.541C21.9405 31.5408 21.9405 31.5406 21.9405 31.5404L22.2693 29.326C22.7547 29.3619 23.2416 29.3619 23.7269 29.326L24.0557 31.5404C24.0557 31.5406 24.0558 31.5408 24.0558 31.541C24.1039 31.866 24.2551 32.1784 24.5031 32.415C24.7534 32.6538 25.088 32.7994 25.4501 32.8V32.8L25.4586 32.8C25.538 32.7993 25.6171 32.7917 25.6951 32.7773L25.6972 32.7769C25.8926 32.7405 26.0747 32.6619 26.2335 32.5506C26.392 32.4396 26.5235 32.2988 26.6242 32.1404C26.7248 31.9821 26.794 31.8075 26.8312 31.6272C26.8683 31.447 26.8733 31.2612 26.8464 31.0795C26.8463 31.0794 26.8463 31.0793 26.8463 31.0792L26.4929 28.6966C27.0397 28.4815 27.5682 28.2156 28.073 27.902L29.1149 29.9478C29.1152 29.9483 29.1154 29.9488 29.1157 29.9493C29.1997 30.1152 29.315 30.267 29.4591 30.393C29.6038 30.5196 29.7749 30.6175 29.964 30.6759C30.1535 30.7343 30.3535 30.7507 30.5509 30.7228C30.7483 30.695 30.9341 30.6242 31.098 30.5191Z" fill="#2C2C2C" stroke="white" stroke-width="1.6"/>
</g>
<defs>
<clipPath id="clip0_1260_3361">
<rect width="32" height="32" fill="white"/>
</clipPath>
</defs>
</svg>
