<svg width="current" height="current" viewBox="0 0 32 32" fill="none" xmlns="http://www.w3.org/2000/svg">
<path d="M5 6.33333C5 5.04533 6.078 4 7.40625 4H24.5938C25.922 4 27 5.04533 27 6.33333V25.6667C27 26.2855 26.7465 26.879 26.2952 27.3166C25.844 27.7542 25.2319 28 24.5938 28H7.40625C6.76807 28 6.15603 27.7542 5.70477 27.3166C5.25351 26.879 5 26.2855 5 25.6667V6.33333ZM7.40625 6C7.31508 6 7.22765 6.03512 7.16318 6.09763C7.09872 6.16014 7.0625 6.24493 7.0625 6.33333V25.6667C7.0625 25.8507 7.2165 26 7.40625 26H24.5938C24.6849 26 24.7724 25.9649 24.8368 25.9024C24.9013 25.8399 24.9375 25.7551 24.9375 25.6667V6.33333C24.9375 6.24493 24.9013 6.16014 24.8368 6.09763C24.7724 6.03512 24.6849 6 24.5938 6H7.40625ZM10.8125 10.6667C10.8125 10.4015 10.9211 10.1471 11.1145 9.95956C11.3079 9.77202 11.5702 9.66667 11.8438 9.66667H20.4688C20.7423 9.66667 21.0046 9.77202 21.198 9.95956C21.3914 10.1471 21.5 10.4015 21.5 10.6667C21.5 10.9319 21.3914 11.1862 21.198 11.3738C21.0046 11.5613 20.7423 11.6667 20.4688 11.6667H11.8438C11.5702 11.6667 11.3079 11.5613 11.1145 11.3738C10.9211 11.1862 10.8125 10.9319 10.8125 10.6667ZM11.8438 14.6667H20.3438C20.6173 14.6667 20.8796 14.772 21.073 14.9596C21.2663 15.1471 21.375 15.4015 21.375 15.6667C21.375 15.9319 21.2663 16.1862 21.073 16.3738C20.8796 16.5613 20.6173 16.6667 20.3438 16.6667H11.8438C11.5702 16.6667 11.3079 16.5613 11.1145 16.3738C10.9211 16.1862 10.8125 15.9319 10.8125 15.6667C10.8125 15.4015 10.9211 15.1471 11.1145 14.9596C11.3079 14.772 11.5702 14.6667 11.8438 14.6667Z" fill="#2C2C2C"/>
<path d="M14.3438 19.666H11.8438C11.5702 19.666 11.3079 19.7714 11.1145 19.9589C10.9211 20.1464 10.8125 20.4008 10.8125 20.666C10.8125 20.9312 10.9211 21.1856 11.1145 21.3731C11.3079 21.5607 11.5702 21.666 11.8438 21.666H14.3438C14.6173 21.666 14.8796 21.5607 15.073 21.3731C15.2663 21.1856 15.375 20.9312 15.375 20.666C15.375 20.4008 15.2663 20.1464 15.073 19.9589C14.8796 19.7714 14.6173 19.666 14.3438 19.666Z" fill="#2C2C2C"/>
<path fill-rule="evenodd" clip-rule="evenodd" d="M16.7508 23.3884C16.3969 23.8796 16.2668 24.2643 16.2668 24.4896C16.2668 24.7149 16.3969 25.0995 16.7508 25.5908C17.0936 26.0649 17.6021 26.5797 18.2456 27.0555C19.5352 28.0086 21.3029 28.7593 23.2344 28.7593C25.1659 28.7593 26.9335 28.0086 28.2231 27.0555C28.8667 26.5797 29.3751 26.0649 29.718 25.5908C30.0719 25.0995 30.2019 24.7149 30.2019 24.4896C30.2019 24.2643 30.0719 23.8796 29.718 23.3884C29.3751 22.9143 28.8667 22.3995 28.2231 21.9237C26.9335 20.9706 25.1659 20.2199 23.2344 20.2199C21.3029 20.2199 19.5352 20.9706 18.2456 21.9237C17.6021 22.3995 17.0936 22.9143 16.7508 23.3884ZM17.4737 20.9559C18.9356 19.8759 20.9676 19 23.2344 19C25.5012 19 27.5331 19.8759 28.9942 20.9559C29.7264 21.4967 30.3311 22.1002 30.7585 22.6931C31.174 23.2697 31.4688 23.9016 31.4688 24.4896C31.4688 25.0776 31.1732 25.7095 30.7585 26.2861C30.3311 26.879 29.7264 27.4816 28.9951 28.0232C27.534 29.1033 25.5012 29.9792 23.2344 29.9792C20.9676 29.9792 18.9356 29.1033 17.4745 28.0232C16.7423 27.4824 16.1376 26.879 15.7103 26.2861C15.2956 25.7095 15 25.0776 15 24.4896C15 23.9016 15.2956 23.2697 15.7103 22.6931C16.1376 22.1002 16.7423 21.4976 17.4737 20.9559Z" fill="#2C2C2C"/>
<path d="M16.7508 23.3884C16.3969 23.8796 16.2668 24.2643 16.2668 24.4896C16.2668 24.7149 16.3969 25.0995 16.7508 25.5908C17.0936 26.0649 17.6021 26.5797 18.2456 27.0555C19.5352 28.0086 21.3029 28.7593 23.2344 28.7593C25.1659 28.7593 26.9335 28.0086 28.2231 27.0555C28.8667 26.5797 29.3751 26.0649 29.718 25.5908C30.0719 25.0995 30.2019 24.7149 30.2019 24.4896C30.2019 24.2643 30.0719 23.8796 29.718 23.3884C29.3751 22.9143 28.8667 22.3995 28.2231 21.9237C26.9335 20.9706 25.1659 20.2199 23.2344 20.2199C21.3029 20.2199 19.5352 20.9706 18.2456 21.9237C17.6021 22.3995 17.0936 22.9143 16.7508 23.3884Z" fill="white"/>
<path fill-rule="evenodd" clip-rule="evenodd" d="M20.0659 24.4892C20.0659 23.6804 20.3996 22.9047 20.9935 22.3327C21.5875 21.7608 22.393 21.4395 23.233 21.4395C24.0729 21.4395 24.8785 21.7608 25.4724 22.3327C26.0664 22.9047 26.4001 23.6804 26.4001 24.4892C26.4001 25.2981 26.0664 26.0738 25.4724 26.6457C24.8785 27.2177 24.0729 27.539 23.233 27.539C22.393 27.539 21.5875 27.2177 20.9935 26.6457C20.3996 26.0738 20.0659 25.2981 20.0659 24.4892ZM23.233 22.6594C22.729 22.6594 22.2457 22.8521 21.8893 23.1953C21.5329 23.5385 21.3327 24.0039 21.3327 24.4892C21.3327 24.9745 21.5329 25.44 21.8893 25.7831C22.2457 26.1263 22.729 26.3191 23.233 26.3191C23.737 26.3191 24.2203 26.1263 24.5767 25.7831C24.933 25.44 25.1332 24.9745 25.1332 24.4892C25.1332 24.0039 24.933 23.5385 24.5767 23.1953C24.2203 22.8521 23.737 22.6594 23.233 22.6594Z" fill="#2C2C2C"/>
<path d="M23.233 22.6594C22.729 22.6594 22.2457 22.8521 21.8893 23.1953C21.5329 23.5385 21.3327 24.0039 21.3327 24.4892C21.3327 24.9745 21.5329 25.44 21.8893 25.7831C22.2457 26.1263 22.729 26.3191 23.233 26.3191C23.737 26.3191 24.2203 26.1263 24.5767 25.7831C24.933 25.44 25.1332 24.9745 25.1332 24.4892C25.1332 24.0039 24.933 23.5385 24.5767 23.1953C24.2203 22.8521 23.737 22.6594 23.233 22.6594Z" fill="#2C2C2C"/>
</svg>
