<svg width="34" height="34" viewBox="0 0 34 34" fill="none" xmlns="http://www.w3.org/2000/svg">
<path d="M17.5 5C10.5963 5 5 10.5963 5 17.5C5 24.4037 10.5963 30 17.5 30C24.4037 30 30 24.4037 30 17.5C30 10.5963 24.4037 5 17.5 5Z" fill="#1A8FD4" stroke="#1A8FD4" stroke-width="1.5" stroke-linecap="round" stroke-linejoin="round"/>
<path d="M7.83887 25.4335C7.83887 25.4335 10.6251 21.876 17.5001 21.876C24.3751 21.876 27.1626 25.4335 27.1626 25.4335C26 26.5 23.3489 30 17.5001 30C12.7002 30 9 27 7.83887 25.4335Z" fill="white"/>
<path d="M17.5 17.501C18.4946 17.501 19.4484 17.1059 20.1517 16.4026C20.8549 15.6994 21.25 14.7455 21.25 13.751C21.25 12.7564 20.8549 11.8026 20.1517 11.0993C19.4484 10.3961 18.4946 10.001 17.5 10.001C16.5055 10.001 15.5516 10.3961 14.8484 11.0993C14.1451 11.8026 13.75 12.7564 13.75 13.751C13.75 14.7455 14.1451 15.6994 14.8484 16.4026C15.5516 17.1059 16.5055 17.501 17.5 17.501Z" fill="white"/>
<path d="M7.83887 25.4335C7.83887 25.4335 10.6251 21.876 17.5001 21.876C24.3751 21.876 27.1626 25.4335 27.1626 25.4335C26 26.5 23.3489 30 17.5001 30C12.7002 30 9 27 7.83887 25.4335Z" stroke="white" stroke-width="1.5" stroke-linecap="round" stroke-linejoin="round"/>
<path d="M17.5 17.501C18.4946 17.501 19.4484 17.1059 20.1517 16.4026C20.8549 15.6994 21.25 14.7455 21.25 13.751C21.25 12.7564 20.8549 11.8026 20.1517 11.0993C19.4484 10.3961 18.4946 10.001 17.5 10.001C16.5055 10.001 15.5516 10.3961 14.8484 11.0993C14.1451 11.8026 13.75 12.7564 13.75 13.751C13.75 14.7455 14.1451 15.6994 14.8484 16.4026C15.5516 17.1059 16.5055 17.501 17.5 17.501Z" stroke="white" stroke-width="1.5" stroke-linecap="round" stroke-linejoin="round"/>
<path d="M17.5 5C10.5963 5 5 10.5963 5 17.5C5 24.4037 10.5963 30 17.5 30C24.4037 30 30 24.4037 30 17.5C30 10.5963 24.4037 5 17.5 5Z" stroke="#1A8FD4" stroke-width="1.5" stroke-linecap="round" stroke-linejoin="round"/>
</svg>
