<svg width="32" height="32" viewBox="0 0 32 32" fill="none" xmlns="http://www.w3.org/2000/svg">
<path d="M15 4V3C15 2.73478 15.1054 2.48043 15.2929 2.29289C15.4804 2.10536 15.7348 2 16 2C16.2652 2 16.5196 2.10536 16.7071 2.29289C16.8946 2.48043 17 2.73478 17 3V4C17 4.26522 16.8946 4.51957 16.7071 4.70711C16.5196 4.89464 16.2652 5 16 5C15.7348 5 15.4804 4.89464 15.2929 4.70711C15.1054 4.51957 15 4.26522 15 4ZM25 8C25.1314 8.0001 25.2615 7.97432 25.3829 7.92414C25.5042 7.87395 25.6146 7.80033 25.7075 7.7075L26.7075 6.7075C26.8951 6.51986 27.0006 6.26536 27.0006 6C27.0006 5.73464 26.8951 5.48014 26.7075 5.2925C26.5199 5.10486 26.2654 4.99944 26 4.99944C25.7346 4.99944 25.4801 5.10486 25.2925 5.2925L24.2925 6.2925C24.1525 6.43236 24.0571 6.61061 24.0185 6.80469C23.9798 6.99878 23.9996 7.19997 24.0754 7.38279C24.1511 7.56561 24.2794 7.72185 24.444 7.83172C24.6086 7.94159 24.8021 8.00016 25 8ZM6.2925 7.7075C6.48014 7.89514 6.73464 8.00056 7 8.00056C7.26536 8.00056 7.51986 7.89514 7.7075 7.7075C7.89514 7.51986 8.00056 7.26536 8.00056 7C8.00056 6.73464 7.89514 6.48014 7.7075 6.2925L6.7075 5.2925C6.51986 5.10486 6.26536 4.99944 6 4.99944C5.73464 4.99944 5.48014 5.10486 5.2925 5.2925C5.10486 5.48014 4.99944 5.73464 4.99944 6C4.99944 6.26536 5.10486 6.51986 5.2925 6.7075L6.2925 7.7075ZM17.1675 11.0138C17.0374 10.9907 16.9041 10.9937 16.7751 11.0226C16.6462 11.0514 16.5243 11.1055 16.4164 11.1817C16.3085 11.2579 16.2168 11.3548 16.1465 11.4666C16.0763 11.5785 16.0289 11.7032 16.0071 11.8335C15.9853 11.9638 15.9895 12.0971 16.0195 12.2257C16.0495 12.3544 16.1048 12.4758 16.182 12.583C16.2592 12.6902 16.3569 12.781 16.4694 12.8502C16.5819 12.9194 16.707 12.9657 16.8375 12.9862C19.2087 13.385 21 15.54 21 18C21 18.2652 21.1054 18.5196 21.2929 18.7071C21.4804 18.8946 21.7348 19 22 19C22.2652 19 22.5196 18.8946 22.7071 18.7071C22.8946 18.5196 23 18.2652 23 18C23 14.575 20.4913 11.5712 17.165 11.0138H17.1675ZM29 24V27C29 27.5304 28.7893 28.0391 28.4142 28.4142C28.0391 28.7893 27.5304 29 27 29H5C4.46957 29 3.96086 28.7893 3.58579 28.4142C3.21071 28.0391 3 27.5304 3 27V24C3 23.4696 3.21071 22.9609 3.58579 22.5858C3.96086 22.2107 4.46957 22 5 22V18C4.99996 16.5484 5.28723 15.1111 5.84526 13.771C6.4033 12.431 7.22105 11.2146 8.25138 10.1921C9.28171 9.16952 10.5042 8.36102 11.8485 7.81316C13.1928 7.26531 14.6322 6.98895 16.0837 7C22.1025 7.045 27 12.0363 27 18.125V22C27.5304 22 28.0391 22.2107 28.4142 22.5858C28.7893 22.9609 29 23.4696 29 24ZM7 22H25V18.125C25 13.125 20.9938 9.03625 16.0688 9H16C13.6131 9 11.3239 9.94821 9.63604 11.636C7.94821 13.3239 7 15.6131 7 18V22ZM27 27V24H5V27H27Z" fill="#808080"/>
</svg>
