<svg width="35" height="34" viewBox="0 0 35 34" fill="none" xmlns="http://www.w3.org/2000/svg">
<path d="M28.667 21.6121V15.3722C28.667 10.0099 28.667 7.33117 27.0561 5.66496C25.4452 4 22.8517 4 17.667 4C12.4811 4 9.88877 4 8.27788 5.66496C6.66699 7.33117 6.66699 10.0124 6.66699 15.3722V21.6133C6.66699 25.4832 6.66699 27.4195 7.5641 28.2644C7.99188 28.6682 8.5321 28.9219 9.10777 28.9894C10.3141 29.1307 11.7233 27.8557 14.5405 25.307C15.7872 24.1808 16.4093 23.617 17.1292 23.4695C17.4837 23.3945 17.8503 23.3945 18.2048 23.4695C18.9259 23.617 19.548 24.1808 20.7934 25.307C23.6107 27.8557 25.0199 29.1307 26.2262 28.9882C26.8007 28.9219 27.3421 28.6682 27.7699 28.2644C28.667 27.4195 28.667 25.4832 28.667 21.6121Z" stroke="#B5B5B5" stroke-width="1.5"/>
<path d="M22.0007 9.11133H14.334" stroke="#B5B5B5" stroke-width="1.5" stroke-linecap="round"/>
</svg>
