<svg width="35" height="34" viewBox="0 0 35 34" fill="none" xmlns="http://www.w3.org/2000/svg">
<path fill-rule="evenodd" clip-rule="evenodd" d="M28.667 15.3722V21.6133C28.667 25.4832 28.667 27.4195 27.7699 28.2644C27.3421 28.6682 26.8019 28.9219 26.2262 28.9894C25.0199 29.1307 23.6107 27.8557 20.7934 25.307C19.5468 24.1808 18.9247 23.617 18.2048 23.4695C17.8498 23.3963 17.4842 23.3963 17.1292 23.4695C16.4081 23.617 15.786 24.1808 14.5405 25.307C11.7233 27.8557 10.3141 29.1307 9.10777 28.9882C8.53117 28.9205 7.99055 28.6671 7.5641 28.2644C6.66699 27.4195 6.66699 25.4845 6.66699 21.6133V15.371C6.66699 10.0124 6.66699 7.33242 8.27788 5.66621C9.88877 4 12.4823 4 17.667 4C22.8529 4 25.4452 4 27.0561 5.66496C28.667 7.33117 28.667 10.0124 28.667 15.3722ZM13.0837 8.99988C13.0837 8.75125 13.1802 8.5128 13.3521 8.33699C13.5241 8.16117 13.7572 8.06241 14.0003 8.06241H21.3337C21.5768 8.06241 21.8099 8.16117 21.9818 8.33699C22.1537 8.5128 22.2503 8.75125 22.2503 8.99988C22.2503 9.24852 22.1537 9.48697 21.9818 9.66278C21.8099 9.83859 21.5768 9.93736 21.3337 9.93736H14.0003C13.7572 9.93736 13.5241 9.83859 13.3521 9.66278C13.1802 9.48697 13.0837 9.24852 13.0837 8.99988Z" fill="#1A8FD4"/>
</svg>
